<svg width="417" height="43" viewBox="0 0 417 43" fill="none" xmlns="http://www.w3.org/2000/svg">
<path fill-rule="evenodd" clip-rule="evenodd" d="M14.313 2.06313L12.2528 0L10.1926 2.06313L12.2528 4.12626L14.313 2.06313ZM16.3732 4.12626L14.313 6.18939L12.2528 4.12626L10.301 6.18939L8.24085 4.12626L6.18066 6.18939L12.2528 12.2702L18.4334 6.18939L16.3732 4.12626Z" fill="#0B9C5B"/>
<path fill-rule="evenodd" clip-rule="evenodd" d="M24.5054 12.2703L20.385 8.14404L12.2527 16.3966L4.12037 8.14404L0 12.2703L9.21662 21.5001V32.6844H15.2888V21.5001L24.5054 12.2703Z" fill="#025FA6"/>
<path fill-rule="evenodd" clip-rule="evenodd" d="M24.5054 20.4141H18.4332L18.3248 30.6211C18.3248 33.9873 15.614 36.8105 12.2527 36.8105C8.99976 36.8105 6.28899 34.2045 6.07213 31.0555H6.18056V20.4141H0V30.6211V30.7297C0 37.462 5.42154 42.9999 12.2527 42.9999C18.867 42.9999 24.1801 37.7878 24.5054 31.2726V20.4141Z" fill="#0B9C5B"/>
<path d="M54.468 21.4643C54.468 22.0251 54.5129 22.541 54.5952 22.9971C54.6849 23.4607 54.827 23.857 55.0363 24.1935C55.2382 24.5299 55.4999 24.7842 55.814 24.9711C56.1355 25.1505 56.5244 25.2403 57.0029 25.2403C57.8479 25.2403 58.476 24.9487 58.8798 24.3654C59.2836 23.7747 59.4855 22.8102 59.4855 21.4643C59.4855 20.9334 59.4481 20.4325 59.3733 19.9763C59.2985 19.5202 59.1639 19.1239 58.9695 18.78C58.7751 18.4435 58.5209 18.1743 58.1993 17.9874C57.8853 17.793 57.4815 17.6958 57.0029 17.6958C56.1505 17.6958 55.5149 17.9949 55.0962 18.608C54.6774 19.2137 54.468 20.1633 54.468 21.4643ZM50.3853 20.3577H52.0528C52.2024 18.8398 52.6959 17.6659 53.5334 16.8359C54.3708 16.0134 55.5224 15.5947 56.988 15.5947C57.8554 15.5947 58.6106 15.7368 59.2462 16.0284C59.8743 16.3125 60.3977 16.7088 60.809 17.2247C61.2128 17.7407 61.5193 18.3613 61.7212 19.0791C61.9156 19.8044 62.0129 20.5969 62.0129 21.4643C62.0129 23.3411 61.5866 24.7842 60.7342 25.8085C59.8818 26.8254 58.633 27.3413 57.0029 27.3413C56.2402 27.3413 55.5672 27.2217 54.984 26.9824C54.4007 26.7507 53.9072 26.4142 53.496 25.988C53.0772 25.5693 52.7482 25.0533 52.5089 24.4477C52.2697 23.8495 52.1126 23.184 52.0528 22.4513H50.3853V27.1096H48V15.819H50.3853V20.3577Z" fill="#67768C"/>
<path d="M70.7391 17.9203H65.9984V27.1097H63.613V15.8267H70.7391V17.9203Z" fill="#67768C"/>
<path d="M73.76 21.4643C73.76 22.0251 73.8123 22.541 73.917 22.9971C74.0292 23.4607 74.1862 23.857 74.403 24.1935C74.6199 24.5299 74.8966 24.7842 75.233 24.9636C75.5695 25.1505 75.9733 25.2403 76.4369 25.2403C77.2819 25.2403 77.9474 24.9487 78.4185 24.3729C78.8895 23.7897 79.1288 22.8251 79.1288 21.4643C79.1288 20.9334 79.0765 20.4325 78.9793 19.9689C78.8821 19.5053 78.725 19.109 78.5082 18.765C78.2839 18.4286 78.0072 18.1669 77.6707 17.9799C77.3267 17.7855 76.9155 17.6958 76.4369 17.6958C75.592 17.6958 74.9414 17.9949 74.4629 18.6005C73.9918 19.1987 73.76 20.1558 73.76 21.4643ZM71.2251 21.4643C71.2251 20.5446 71.3447 19.7146 71.5765 18.9819C71.8158 18.2566 72.1598 17.636 72.601 17.135C73.0496 16.6415 73.5955 16.2527 74.2385 15.991C74.8891 15.7293 75.6144 15.5947 76.4369 15.5947C77.3043 15.5947 78.067 15.7368 78.7176 16.0209C79.3681 16.3125 79.9065 16.7088 80.3477 17.2247C80.7814 17.7407 81.1104 18.3613 81.3272 19.0791C81.5515 19.8044 81.6562 20.5969 81.6562 21.4643C81.6562 22.3915 81.5366 23.2214 81.2973 23.9542C81.058 24.6795 80.7066 25.3001 80.2579 25.8011C79.8018 26.2945 79.2559 26.6834 78.6129 26.9451C77.9698 27.2068 77.237 27.3413 76.4369 27.3413C75.5621 27.3413 74.7993 27.1993 74.1488 26.9152C73.4983 26.6235 72.9599 26.2273 72.5262 25.7113C72.085 25.1954 71.7635 24.5748 71.5466 23.857C71.3298 23.1317 71.2251 22.3391 71.2251 21.4643Z" fill="#67768C"/>
<path d="M86.7785 17.7552C86.5542 17.7552 86.3373 17.7627 86.1279 17.7777C85.9186 17.7851 85.7466 17.8076 85.6195 17.8375V21.1947C85.6643 21.2022 85.7316 21.2172 85.8288 21.2246C85.926 21.2396 86.0307 21.2471 86.1354 21.2471C86.2401 21.2545 86.3448 21.262 86.4345 21.262C86.5242 21.2695 86.599 21.277 86.6514 21.277C86.9654 21.277 87.272 21.2545 87.586 21.2097C87.9001 21.1648 88.1768 21.0751 88.4161 20.933C88.6628 20.7984 88.8572 20.604 89.0068 20.3648C89.1563 20.118 89.2311 19.7965 89.2311 19.3853C89.2311 19.0413 89.1638 18.7646 89.0217 18.5553C88.8797 18.3459 88.7002 18.1814 88.4684 18.0618C88.2366 17.9422 87.9749 17.8674 87.6758 17.8225C87.3767 17.7777 87.0851 17.7552 86.7785 17.7552ZM83.2341 15.9383C83.7202 15.8486 84.2511 15.7813 84.8418 15.7364C85.4325 15.6841 86.0307 15.6616 86.6214 15.6616C87.2197 15.6616 87.8328 15.7065 88.4385 15.7962C89.0516 15.8934 89.605 16.0729 90.0985 16.3495C90.5845 16.6187 90.9883 17 91.2949 17.4935C91.609 17.9795 91.766 18.6301 91.766 19.4376C91.766 20.1479 91.6314 20.7461 91.3622 21.2471C91.093 21.748 90.7341 22.1518 90.2854 22.4658C89.8443 22.7799 89.3358 23.0042 88.7675 23.1537C88.1917 23.2958 87.6085 23.3706 87.0103 23.3706H86.7336C86.6065 23.3706 86.4644 23.3706 86.3223 23.3631C86.1728 23.3556 86.0382 23.3481 85.9111 23.3407C85.784 23.3257 85.6868 23.3182 85.6195 23.3033V27.1092H83.2341V15.9383Z" fill="#67768C"/>
<path d="M101.531 26.631C101.18 26.8778 100.709 27.0572 100.126 27.1694C99.5498 27.2815 98.9516 27.3413 98.3384 27.3413C97.6206 27.3413 96.9252 27.2292 96.2671 27.0124C95.6016 26.803 95.0184 26.459 94.5099 25.9805C93.994 25.5094 93.5902 24.9038 93.2911 24.1636C92.992 23.4158 92.835 22.5186 92.835 21.4718C92.835 20.3726 93.0069 19.4455 93.3509 18.7052C93.7024 17.9575 94.136 17.3519 94.6744 16.8958C95.2128 16.4396 95.811 16.1107 96.469 15.9013C97.1196 15.6994 97.7701 15.5947 98.4057 15.5947C99.1011 15.5947 99.6918 15.6396 100.17 15.7293C100.649 15.8116 101.045 15.9162 101.352 16.0359L100.888 18.0323C100.619 17.9126 100.305 17.8304 99.9461 17.7781C99.5797 17.7182 99.131 17.6958 98.5777 17.6958C98.0991 17.6958 97.658 17.7706 97.2616 17.9276C96.8728 18.0846 96.5363 18.3164 96.2597 18.6305C95.9755 18.9445 95.7587 19.3333 95.6016 19.8044C95.4446 20.2829 95.3698 20.8362 95.3698 21.4718C95.3698 22.0251 95.4371 22.541 95.5792 22.9971C95.7213 23.4607 95.9307 23.857 96.2073 24.1935C96.4915 24.5299 96.8429 24.7842 97.2766 24.9636C97.7028 25.1505 98.2038 25.2403 98.7721 25.2403C99.303 25.2403 99.7442 25.1954 100.103 25.0982C100.462 25.001 100.784 24.8739 101.06 24.7243L101.531 26.631Z" fill="#67768C"/>
<path d="M105.891 22.3393H105.263V27.1097H102.877V15.8267H105.263V20.7915L105.831 20.5522L109.218 15.8267H111.94L108.358 20.5522L107.424 21.1654L108.396 21.8084L112.494 27.1097H109.54L105.891 22.3393Z" fill="#67768C"/>
<path d="M120.861 20.8884L120.996 19.4527H120.913L120.091 20.9033L115.462 27.1094H113.683V15.8188H116.075V21.9053L115.911 23.4007H116.008L116.876 21.9053L121.459 15.8188H123.246V27.1094H120.861V20.8884Z" fill="#67768C"/>
<path d="M128.981 13C129.034 13.3365 129.176 13.5683 129.4 13.7103C129.625 13.8524 129.924 13.9197 130.29 13.9197C131.06 13.9197 131.501 13.6206 131.591 13.015L133.543 13.2916C133.416 13.987 133.079 14.4954 132.526 14.802C131.98 15.1086 131.225 15.2581 130.268 15.2581C129.797 15.2581 129.363 15.2282 128.967 15.1684C128.57 15.1086 128.219 15.0039 127.92 14.8543C127.613 14.7048 127.374 14.5104 127.179 14.2636C126.992 14.0244 126.873 13.7178 126.82 13.3365L128.981 13ZM132.466 20.8884L132.593 19.4528H132.511L131.688 20.9034L127.06 27.1094H125.288V15.8189H127.673V21.9053L127.516 23.4007H127.613L128.48 21.9053L133.064 15.8189H134.851V27.1094H132.466V20.8884Z" fill="#67768C"/>
<path d="M148.528 17.9203H143.787V27.1097H141.402V15.8267H148.528V17.9203Z" fill="#67768C"/>
<path d="M151.549 21.4643C151.549 22.0251 151.601 22.541 151.706 22.9971C151.81 23.4607 151.975 23.857 152.192 24.1935C152.408 24.5299 152.685 24.7842 153.022 24.9636C153.358 25.1505 153.762 25.2403 154.225 25.2403C155.07 25.2403 155.736 24.9487 156.207 24.3729C156.678 23.7897 156.917 22.8251 156.917 21.4643C156.917 20.9334 156.865 20.4325 156.768 19.9689C156.671 19.5053 156.514 19.109 156.297 18.765C156.072 18.4286 155.796 18.1669 155.459 17.9799C155.115 17.7855 154.704 17.6958 154.225 17.6958C153.381 17.6958 152.73 17.9949 152.259 18.6005C151.78 19.1987 151.549 20.1558 151.549 21.4643ZM149.014 21.4643C149.014 20.5446 149.133 19.7146 149.365 18.9819C149.604 18.2566 149.948 17.636 150.39 17.135C150.838 16.6415 151.384 16.2527 152.027 15.991C152.67 15.7293 153.403 15.5947 154.225 15.5947C155.093 15.5947 155.856 15.7368 156.506 16.0209C157.157 16.3125 157.695 16.7088 158.136 17.2247C158.57 17.7407 158.899 18.3613 159.116 19.0791C159.34 19.8044 159.445 20.5969 159.445 21.4643C159.445 22.3915 159.325 23.2214 159.086 23.9542C158.847 24.6795 158.495 25.3001 158.046 25.8011C157.59 26.2945 157.045 26.6834 156.401 26.9451C155.758 27.2068 155.026 27.3413 154.225 27.3413C153.351 27.3413 152.588 27.1993 151.937 26.9152C151.287 26.6235 150.748 26.2273 150.315 25.7113C149.874 25.1954 149.552 24.5748 149.335 23.857C149.118 23.1317 149.014 22.3391 149.014 21.4643Z" fill="#67768C"/>
<path d="M169.382 26.631C169.031 26.8778 168.56 27.0572 167.984 27.1694C167.401 27.2815 166.802 27.3413 166.189 27.3413C165.471 27.3413 164.784 27.2292 164.118 27.0124C163.46 26.803 162.869 26.459 162.361 25.9805C161.852 25.5094 161.441 24.9038 161.142 24.1636C160.843 23.4158 160.693 22.5186 160.693 21.4718C160.693 20.3726 160.865 19.4455 161.209 18.7052C161.553 17.9575 161.994 17.3519 162.533 16.8958C163.071 16.4396 163.662 16.1107 164.32 15.9013C164.978 15.6994 165.621 15.5947 166.257 15.5947C166.952 15.5947 167.543 15.6396 168.021 15.7293C168.5 15.8116 168.896 15.9162 169.21 16.0359L168.739 18.0323C168.47 17.9126 168.156 17.8304 167.797 17.7781C167.438 17.7182 166.982 17.6958 166.436 17.6958C165.95 17.6958 165.509 17.7706 165.12 17.9276C164.724 18.0846 164.387 18.3164 164.111 18.6305C163.834 18.9445 163.617 19.3333 163.46 19.8044C163.303 20.2829 163.221 20.8362 163.221 21.4718C163.221 22.0251 163.296 22.541 163.438 22.9971C163.572 23.4607 163.782 23.857 164.058 24.1935C164.342 24.5299 164.694 24.7842 165.128 24.9636C165.554 25.1505 166.055 25.2403 166.623 25.2403C167.154 25.2403 167.595 25.1954 167.961 25.0982C168.32 25.001 168.634 24.8739 168.919 24.7243L169.382 26.631Z" fill="#67768C"/>
<path d="M175.327 20.7392L175.678 22.1748H175.791L176.067 20.6793L177.907 15.8267H180.404L177.137 23.6777C176.89 24.2833 176.636 24.7993 176.389 25.2404C176.142 25.6816 175.88 26.0479 175.604 26.347C175.32 26.6461 175.005 26.863 174.662 27.005C174.325 27.1546 173.921 27.2293 173.473 27.2293C173.084 27.2293 172.777 27.2069 172.553 27.162C172.329 27.1172 172.074 27.0125 171.798 26.8405L172.388 24.9189C172.598 25.0161 172.785 25.0759 172.949 25.0983C173.114 25.1208 173.286 25.1283 173.473 25.1283C174.033 25.1283 174.422 24.7544 174.632 23.9992L170.033 15.8267H172.844L175.327 20.7392Z" fill="#67768C"/>
<path d="M186.874 25.1894V18.0936H184.13C184.07 19.9405 183.905 21.4583 183.636 22.6397C183.374 23.8211 183.113 24.6735 182.843 25.1894H186.874ZM190.807 29.2869H189.117L188.855 27.283H180.952L180.697 29.2869H179V25.1894H180.309C180.398 25.0698 180.533 24.8156 180.712 24.4118C180.892 24.0155 181.079 23.4473 181.258 22.707C181.445 21.9668 181.602 21.0396 181.737 19.9405C181.871 18.8413 181.931 17.5253 181.909 16H189.259V25.1894H190.807V29.2869Z" fill="#67768C"/>
<path d="M195.927 22.825H198.507L197.64 20.4697L197.251 18.6752H197.169L196.787 20.4847L195.927 22.825ZM199.075 24.7093H195.269L194.35 27.1094H191.964L196.384 15.7441H198.141L202.575 27.1094H200.04L199.075 24.7093Z" fill="#67768C"/>
<path d="M207.249 17.7552C207.024 17.7552 206.8 17.7627 206.591 17.7777C206.381 17.7851 206.217 17.8076 206.09 17.8375V21.1947C206.127 21.2022 206.202 21.2172 206.299 21.2246C206.389 21.2396 206.493 21.2471 206.606 21.2471C206.71 21.2545 206.807 21.262 206.897 21.262C206.994 21.2695 207.062 21.277 207.121 21.277C207.428 21.277 207.742 21.2545 208.056 21.2097C208.363 21.1648 208.639 21.0751 208.886 20.933C209.125 20.7984 209.32 20.604 209.469 20.3648C209.626 20.118 209.701 19.7965 209.701 19.3853C209.701 19.0413 209.626 18.7646 209.492 18.5553C209.35 18.3459 209.163 18.1814 208.931 18.0618C208.699 17.9422 208.438 17.8674 208.146 17.8225C207.847 17.7777 207.548 17.7552 207.249 17.7552ZM203.697 15.9383C204.183 15.8486 204.721 15.7813 205.312 15.7364C205.903 15.6841 206.493 15.6616 207.084 15.6616C207.69 15.6616 208.295 15.7065 208.909 15.7962C209.522 15.8934 210.075 16.0729 210.561 16.3495C211.047 16.6187 211.451 17 211.765 17.4935C212.072 17.9795 212.229 18.6301 212.229 19.4376C212.229 20.1479 212.094 20.7461 211.825 21.2471C211.556 21.748 211.204 22.1518 210.756 22.4658C210.307 22.7799 209.798 23.0042 209.23 23.1537C208.662 23.2958 208.079 23.3706 207.473 23.3706H207.196C207.069 23.3706 206.935 23.3706 206.785 23.3631C206.643 23.3556 206.508 23.3481 206.374 23.3407C206.247 23.3257 206.149 23.3182 206.09 23.3033V27.1092H203.697V15.9383Z" fill="#67768C"/>
<path d="M221.994 26.631C221.643 26.8778 221.172 27.0572 220.596 27.1694C220.012 27.2815 219.414 27.3413 218.801 27.3413C218.083 27.3413 217.395 27.2292 216.73 27.0124C216.072 26.803 215.481 26.459 214.973 25.9805C214.464 25.5094 214.06 24.9038 213.754 24.1636C213.455 23.4158 213.305 22.5186 213.305 21.4718C213.305 20.3726 213.477 19.4455 213.821 18.7052C214.165 17.9575 214.606 17.3519 215.145 16.8958C215.683 16.4396 216.274 16.1107 216.932 15.9013C217.59 15.6994 218.233 15.5947 218.868 15.5947C219.564 15.5947 220.155 15.6396 220.633 15.7293C221.112 15.8116 221.508 15.9162 221.822 16.0359L221.351 18.0323C221.082 17.9126 220.768 17.8304 220.409 17.7781C220.05 17.7182 219.594 17.6958 219.048 17.6958C218.562 17.6958 218.121 17.7706 217.732 17.9276C217.336 18.0846 217.007 18.3164 216.722 18.6305C216.446 18.9445 216.229 19.3333 216.072 19.8044C215.915 20.2829 215.84 20.8362 215.84 21.4718C215.84 22.0251 215.907 22.541 216.049 22.9971C216.184 23.4607 216.393 23.857 216.678 24.1935C216.954 24.5299 217.313 24.7842 217.739 24.9636C218.173 25.1505 218.667 25.2403 219.242 25.2403C219.766 25.2403 220.207 25.1954 220.573 25.0982C220.932 25.001 221.254 24.8739 221.53 24.7243L221.994 26.631Z" fill="#67768C"/>
<path d="M232.373 17.9203H228.791V27.1097H226.406V17.9203H222.824V15.8267H232.373V17.9203Z" fill="#67768C"/>
<path d="M237.45 25.3371C237.749 25.3371 238.033 25.3146 238.31 25.2548C238.587 25.2025 238.826 25.1128 239.035 24.9931C239.245 24.866 239.417 24.709 239.536 24.5221C239.656 24.3351 239.723 24.1033 239.723 23.8192C239.723 23.4753 239.649 23.2061 239.499 22.9967C239.342 22.7948 239.148 22.6453 238.908 22.5406C238.662 22.4359 238.4 22.3761 238.101 22.3462C237.802 22.3163 237.51 22.3088 237.203 22.3088H235.887V25.2399C235.947 25.2623 236.044 25.2773 236.164 25.2922C236.291 25.2997 236.426 25.3072 236.575 25.3146C236.725 25.3221 236.882 25.3221 237.039 25.3296C237.188 25.3371 237.331 25.3371 237.45 25.3371ZM236.687 20.5293C236.852 20.5293 237.039 20.5293 237.263 20.5218C237.48 20.5218 237.667 20.5068 237.817 20.4844C238.273 20.3423 238.654 20.1554 238.961 19.9087C239.275 19.6694 239.432 19.3404 239.432 18.9217C239.432 18.6375 239.372 18.4132 239.252 18.2412C239.133 18.0693 238.976 17.9347 238.781 17.8375C238.579 17.7403 238.355 17.6805 238.108 17.6431C237.861 17.6132 237.607 17.5982 237.353 17.5982C237.039 17.5982 236.755 17.6057 236.493 17.6132C236.239 17.6206 236.029 17.6431 235.887 17.658V20.5293H236.687ZM241.854 18.4805C241.854 18.7646 241.81 19.0413 241.727 19.3105C241.653 19.5871 241.525 19.8414 241.353 20.0806C241.181 20.3199 240.95 20.5218 240.673 20.6938C240.396 20.8657 240.052 20.9854 239.656 21.0676V21.1573C240.015 21.1947 240.344 21.277 240.658 21.4041C240.972 21.5312 241.241 21.7106 241.473 21.9424C241.705 22.1742 241.884 22.4509 242.019 22.7799C242.154 23.1089 242.221 23.4902 242.221 23.9314C242.221 24.5295 242.086 25.0305 241.81 25.4492C241.54 25.868 241.181 26.2119 240.74 26.4811C240.299 26.7503 239.791 26.9521 239.222 27.0793C238.654 27.2064 238.071 27.2737 237.48 27.2737H236.717C236.396 27.2737 236.059 27.2662 235.7 27.2512C235.334 27.2363 234.975 27.2064 234.601 27.1765C234.227 27.1465 233.898 27.0942 233.592 27.0344V15.9009C233.816 15.871 234.078 15.8411 234.362 15.8037C234.646 15.7738 234.953 15.7513 235.282 15.7289C235.611 15.7065 235.94 15.6915 236.284 15.6766C236.628 15.6691 236.972 15.6616 237.316 15.6616C237.876 15.6616 238.43 15.699 238.961 15.7813C239.499 15.8635 239.985 16.0056 240.419 16.2149C240.845 16.4243 241.189 16.7159 241.458 17.0823C241.72 17.4487 241.854 17.9122 241.854 18.4805Z" fill="#67768C"/>
<path d="M243.791 15.8267H251.067V17.9203H246.184V20.3728H250.618V22.4664H246.184V25.0161H251.149V27.1097H243.791V15.8267Z" fill="#67768C"/>
<path d="M259.785 22.4511H255.269V27.1094H252.876V15.8188H255.269V20.3575H259.785V15.8188H262.171V27.1094H259.785V22.4511Z" fill="#67768C"/>
<path d="M271.106 22.4511H266.597V27.1094H264.205V15.8188H266.597V20.3575H271.106V15.8188H273.499V27.1094H271.106V22.4511Z" fill="#67768C"/>
<path d="M284.999 15.8267H287.385V27.1097H284.999V15.8267ZM278.95 25.1806C279.608 25.1806 280.147 25.046 280.565 24.7768C280.984 24.5076 281.193 24.059 281.193 23.4384C281.193 23.1019 281.134 22.8328 281.014 22.6234C280.902 22.414 280.737 22.2421 280.543 22.1224C280.341 21.9953 280.109 21.9131 279.833 21.8682C279.556 21.8308 279.272 21.8084 278.965 21.8084C278.89 21.8084 278.801 21.8159 278.703 21.8233C278.599 21.8308 278.494 21.8458 278.397 21.8533C278.292 21.8682 278.202 21.8757 278.113 21.8981C278.03 21.9131 277.963 21.928 277.918 21.9355V25.0983C278.187 25.1507 278.531 25.1806 278.95 25.1806ZM275.533 15.8267H277.918V19.8419C278.038 19.8195 278.232 19.7896 278.509 19.7596C278.786 19.7297 279.062 19.7073 279.339 19.7073C279.922 19.7073 280.476 19.7671 281.006 19.8793C281.537 19.9914 282.008 20.1858 282.412 20.4625C282.816 20.7317 283.138 21.1055 283.369 21.5841C283.609 22.0551 283.728 22.6458 283.728 23.3562C283.728 24.6572 283.31 25.6367 282.465 26.2872C281.627 26.9452 280.401 27.2742 278.793 27.2742C278.629 27.2742 278.419 27.2742 278.165 27.2667C277.903 27.2592 277.627 27.2443 277.32 27.2293C277.021 27.2069 276.714 27.177 276.4 27.1471C276.094 27.1097 275.802 27.0648 275.533 26.9975V15.8267Z" fill="#67768C"/>
<path d="M293.113 13C293.165 13.3365 293.307 13.5683 293.531 13.7103C293.756 13.8524 294.047 13.9197 294.414 13.9197C295.191 13.9197 295.625 13.6206 295.722 13.015L297.674 13.2916C297.547 13.987 297.21 14.4954 296.657 14.802C296.111 15.1086 295.356 15.2581 294.399 15.2581C293.928 15.2581 293.494 15.2282 293.098 15.1684C292.694 15.1086 292.35 15.0039 292.043 14.8543C291.744 14.7048 291.497 14.5104 291.311 14.2636C291.124 14.0244 291.004 13.7178 290.952 13.3365L293.113 13ZM296.597 20.8884L296.724 19.4528H296.642L295.819 20.9034L291.191 27.1094H289.419V15.8189H291.804V21.9053L291.64 23.4007H291.737L292.612 21.9053L297.188 15.8189H298.982V27.1094H296.597V20.8884Z" fill="#67768C"/>
<path d="M309.608 20.7392L309.967 22.1748H310.079L310.348 20.6793L312.188 15.8267H314.693L311.417 23.6777C311.171 24.2833 310.924 24.7993 310.67 25.2404C310.423 25.6816 310.161 26.0479 309.885 26.347C309.6 26.6461 309.294 26.863 308.95 27.005C308.606 27.1546 308.21 27.2293 307.753 27.2293C307.365 27.2293 307.058 27.2069 306.834 27.162C306.609 27.1172 306.355 27.0125 306.079 26.8405L306.677 24.9189C306.879 25.0161 307.066 25.0759 307.23 25.0983C307.395 25.1208 307.574 25.1283 307.753 25.1283C308.314 25.1283 308.703 24.7544 308.912 23.9992L304.321 15.8267H307.125L309.608 20.7392Z" fill="#67768C"/>
<path d="M322.574 22.4511H318.057V27.1094H315.672V15.8188H318.057V20.3575H322.574V15.8188H324.959V27.1094H322.574V22.4511Z" fill="#67768C"/>
<path d="M334.172 20.8884L334.307 19.4527H334.224L333.402 20.9033L328.773 27.1094H327.001V15.8188H329.386V21.9053L329.222 23.4007H329.319L330.194 21.9053L334.77 15.8188H336.565V27.1094H334.172V20.8884Z" fill="#67768C"/>
<path d="M342.457 25.3371C342.756 25.3371 343.04 25.3146 343.316 25.2548C343.586 25.2025 343.832 25.1128 344.042 24.9931C344.251 24.866 344.416 24.709 344.543 24.5221C344.662 24.3351 344.73 24.1033 344.73 23.8192C344.73 23.4753 344.655 23.2061 344.498 22.9967C344.348 22.7948 344.154 22.6453 343.915 22.5406C343.668 22.4359 343.399 22.3761 343.107 22.3462C342.808 22.3163 342.509 22.3088 342.21 22.3088H340.886V25.2399C340.954 25.2623 341.043 25.2773 341.17 25.2922C341.298 25.2997 341.432 25.3072 341.582 25.3146C341.731 25.3221 341.888 25.3221 342.038 25.3296C342.195 25.3371 342.337 25.3371 342.457 25.3371ZM341.694 20.5293C341.858 20.5293 342.045 20.5293 342.27 20.5218C342.486 20.5218 342.673 20.5068 342.823 20.4844C343.279 20.3423 343.66 20.1554 343.967 19.9087C344.281 19.6694 344.438 19.3404 344.438 18.9217C344.438 18.6375 344.378 18.4132 344.259 18.2412C344.139 18.0693 343.982 17.9347 343.78 17.8375C343.586 17.7403 343.361 17.6805 343.115 17.6431C342.868 17.6132 342.614 17.5982 342.359 17.5982C342.045 17.5982 341.761 17.6057 341.499 17.6132C341.245 17.6206 341.036 17.6431 340.886 17.658V20.5293H341.694ZM346.853 18.4805C346.853 18.7646 346.816 19.0413 346.734 19.3105C346.651 19.5871 346.524 19.8414 346.352 20.0806C346.18 20.3199 345.956 20.5218 345.679 20.6938C345.403 20.8657 345.059 20.9854 344.662 21.0676V21.1573C345.014 21.1947 345.35 21.277 345.664 21.4041C345.971 21.5312 346.248 21.7106 346.479 21.9424C346.711 22.1742 346.891 22.4509 347.025 22.7799C347.16 23.1089 347.227 23.4902 347.227 23.9314C347.227 24.5295 347.093 25.0305 346.816 25.4492C346.539 25.868 346.18 26.2119 345.739 26.4811C345.305 26.7503 344.797 26.9521 344.229 27.0793C343.66 27.2064 343.077 27.2737 342.486 27.2737H341.716C341.402 27.2737 341.066 27.2662 340.699 27.2512C340.34 27.2363 339.974 27.2064 339.608 27.1765C339.234 27.1465 338.897 27.0942 338.598 27.0344V15.9009C338.822 15.871 339.077 15.8411 339.361 15.8037C339.652 15.7738 339.959 15.7513 340.281 15.7289C340.61 15.7065 340.946 15.6915 341.29 15.6766C341.634 15.6691 341.978 15.6616 342.322 15.6616C342.883 15.6616 343.429 15.699 343.967 15.7813C344.505 15.8635 344.991 16.0056 345.418 16.2149C345.851 16.4243 346.195 16.7159 346.464 17.0823C346.726 17.4487 346.853 17.9122 346.853 18.4805Z" fill="#67768C"/>
<path d="M348.798 15.8267H356.073V17.9203H351.19V20.3728H355.625V22.4664H351.19V25.0161H356.155V27.1097H348.798V15.8267Z" fill="#67768C"/>
<path d="M361.435 17.7552C361.21 17.7552 360.986 17.7627 360.777 17.7777C360.567 17.7851 360.403 17.8076 360.276 17.8375V21.1947C360.313 21.2022 360.388 21.2172 360.485 21.2246C360.575 21.2396 360.679 21.2471 360.792 21.2471C360.896 21.2545 360.993 21.262 361.083 21.262C361.18 21.2695 361.248 21.277 361.308 21.277C361.614 21.277 361.928 21.2545 362.242 21.2097C362.549 21.1648 362.825 21.0751 363.072 20.933C363.311 20.7984 363.506 20.604 363.655 20.3648C363.812 20.118 363.887 19.7965 363.887 19.3853C363.887 19.0413 363.812 18.7646 363.678 18.5553C363.536 18.3459 363.349 18.1814 363.117 18.0618C362.885 17.9422 362.624 17.8674 362.332 17.8225C362.033 17.7777 361.734 17.7552 361.435 17.7552ZM357.883 15.9383C358.369 15.8486 358.907 15.7813 359.498 15.7364C360.089 15.6841 360.679 15.6616 361.27 15.6616C361.876 15.6616 362.481 15.7065 363.095 15.7962C363.708 15.8934 364.254 16.0729 364.747 16.3495C365.233 16.6187 365.637 17 365.951 17.4935C366.258 17.9795 366.415 18.6301 366.415 19.4376C366.415 20.1479 366.28 20.7461 366.011 21.2471C365.742 21.748 365.383 22.1518 364.942 22.4658C364.493 22.7799 363.984 23.0042 363.416 23.1537C362.848 23.2958 362.265 23.3706 361.659 23.3706H361.382C361.255 23.3706 361.121 23.3706 360.971 23.3631C360.829 23.3556 360.694 23.3481 360.56 23.3407C360.433 23.3257 360.335 23.3182 360.276 23.3033V27.1092H357.883V15.9383Z" fill="#67768C"/>
<path d="M376.188 26.631C375.829 26.8778 375.358 27.0572 374.782 27.1694C374.199 27.2815 373.601 27.3413 372.988 27.3413C372.27 27.3413 371.582 27.2292 370.916 27.0124C370.258 26.803 369.668 26.459 369.159 25.9805C368.651 25.5094 368.247 24.9038 367.94 24.1636C367.641 23.4158 367.492 22.5186 367.492 21.4718C367.492 20.3726 367.664 19.4455 368.008 18.7052C368.352 17.9575 368.793 17.3519 369.331 16.8958C369.87 16.4396 370.46 16.1107 371.118 15.9013C371.776 15.6994 372.419 15.5947 373.055 15.5947C373.75 15.5947 374.341 15.6396 374.82 15.7293C375.298 15.8116 375.695 15.9162 376.009 16.0359L375.537 18.0323C375.268 17.9126 374.954 17.8304 374.595 17.7781C374.236 17.7182 373.78 17.6958 373.234 17.6958C372.748 17.6958 372.307 17.7706 371.918 17.9276C371.522 18.0846 371.193 18.3164 370.909 18.6305C370.632 18.9445 370.415 19.3333 370.258 19.8044C370.101 20.2829 370.027 20.8362 370.027 21.4718C370.027 22.0251 370.094 22.541 370.236 22.9971C370.371 23.4607 370.58 23.857 370.864 24.1935C371.141 24.5299 371.492 24.7842 371.926 24.9636C372.36 25.1505 372.853 25.2403 373.429 25.2403C373.952 25.2403 374.393 25.1954 374.76 25.0982C375.119 25.001 375.44 24.8739 375.717 24.7243L376.188 26.631Z" fill="#67768C"/>
<path d="M384.704 20.8884L384.839 19.4527H384.757L383.934 20.9033L379.306 27.1094H377.533V15.8188H379.919V21.9053L379.754 23.4007H379.851L380.726 21.9053L385.303 15.8188H387.097V27.1094H384.704V20.8884Z" fill="#67768C"/>
<path d="M397.865 17.9203H394.283V27.1097H391.89V17.9203H388.316V15.8267H397.865V17.9203Z" fill="#67768C"/>
<path d="M399.084 15.8267H406.36V17.9203H401.469V20.3728H405.903V22.4664H401.469V25.0161H406.434V27.1097H399.084V15.8267Z" fill="#67768C"/>
<path d="M417 17.9203H413.426V27.1097H411.033V17.9203H407.458V15.8267H417V17.9203Z" fill="#67768C"/>
</svg>
