<svg width="202" height="67" viewBox="0 0 202 67" fill="none" xmlns="http://www.w3.org/2000/svg">
<path d="M60.0836 13.9431C60.0836 14.5478 60.1287 15.0983 60.2191 15.5946C60.3094 16.091 60.472 16.5241 60.6888 16.8761C60.9055 17.2371 61.1855 17.5168 61.5288 17.7154C61.872 17.9049 62.2965 18.0042 62.8114 18.0042C63.7236 18.0042 64.4011 17.6883 64.8346 17.0566C65.2682 16.4339 65.4849 15.387 65.4849 13.9431C65.4849 13.3656 65.4488 12.8331 65.3675 12.3368C65.2862 11.8404 65.1417 11.4163 64.934 11.0553C64.7172 10.6853 64.4462 10.3965 64.103 10.1889C63.7598 9.98137 63.3262 9.8821 62.8114 9.8821C61.8901 9.8821 61.2126 10.207 60.761 10.8567C60.3094 11.5155 60.0836 12.5443 60.0836 13.9431ZM55.6848 12.7429H57.4732C57.6358 11.1094 58.1687 9.85503 59.072 8.9616C59.9752 8.06818 61.2126 7.62598 62.7933 7.62598C63.7327 7.62598 64.5365 7.77939 65.223 8.08623C65.9095 8.39306 66.4695 8.81721 66.9121 9.37673C67.3546 9.92722 67.6798 10.595 67.8966 11.3711C68.1043 12.1473 68.2127 13.0046 68.2127 13.9431C68.2127 15.9556 67.7521 17.5168 66.8308 18.6178C65.9095 19.7188 64.5727 20.2603 62.8114 20.2603C61.9894 20.2603 61.2578 20.1339 60.6346 19.8813C60.0113 19.6286 59.4784 19.2766 59.0268 18.8164C58.5842 18.3561 58.2319 17.8056 57.97 17.1559C57.7081 16.5061 57.5455 15.7932 57.4732 14.999H55.6848V20.0256H53.1106V7.86964H55.6848V12.7429Z" fill="white"/>
<path d="M76.4052 13.0592H72.6116V20.0261H70.0464V10.9023H76.4052V13.0592Z" fill="white"/>
<path d="M79.6841 15.4687C79.6841 15.8568 79.7293 16.2178 79.8105 16.5517C79.8918 16.8856 80.0093 17.1744 80.1809 17.427C80.3525 17.6797 80.5693 17.8783 80.8312 18.0227C81.1022 18.1761 81.4273 18.2483 81.8067 18.2483C83.2157 18.2483 83.9293 17.3278 83.9293 15.4687C83.9293 15.0626 83.8932 14.6926 83.8119 14.3497C83.7396 14.0068 83.6222 13.718 83.4506 13.4653C83.279 13.2216 83.0622 13.0231 82.7912 12.8877C82.5203 12.7433 82.1861 12.6802 81.8067 12.6802C81.1473 12.6802 80.6325 12.8968 80.2531 13.339C79.8738 13.7721 79.6841 14.4851 79.6841 15.4687ZM77.1821 15.4687C77.1821 13.9707 77.5796 12.7885 78.3834 11.9311C79.1783 11.0738 80.3254 10.6406 81.8067 10.6406C82.5835 10.6406 83.2609 10.767 83.839 11.0106C84.4171 11.2543 84.9048 11.5882 85.2842 12.0214C85.6635 12.4636 85.9526 12.9689 86.1422 13.5555C86.3319 14.1421 86.4313 14.7738 86.4313 15.4687C86.4313 16.2178 86.3229 16.8856 86.1151 17.4812C85.9074 18.0768 85.6093 18.5822 85.2119 18.9973C84.8235 19.4124 84.3358 19.7283 83.7667 19.9539C83.1887 20.1705 82.5383 20.2788 81.8067 20.2788C81.0209 20.2788 80.3344 20.1615 79.7564 19.9178C79.1783 19.6742 78.6996 19.3402 78.3112 18.9071C77.9318 18.4649 77.6428 17.9595 77.4621 17.3729C77.2725 16.7863 77.1821 16.1546 77.1821 15.4687Z" fill="white"/>
<path d="M92.5824 12.6802C92.0314 12.6802 91.5978 12.7975 91.2998 13.0502C91.0017 13.3029 90.7669 13.6819 90.6043 14.2053V17.7429C90.803 17.9054 91.0198 18.0407 91.2636 18.131C91.5075 18.2212 91.8146 18.2663 92.1849 18.2663C92.9708 18.2663 93.5579 18.0227 93.9372 17.5263C94.3256 17.039 94.5153 16.2539 94.5153 15.18C94.5153 14.4038 94.3708 13.7902 94.0727 13.348C93.7746 12.8968 93.2779 12.6802 92.5824 12.6802ZM88.1746 10.9023H89.9088L90.2068 12.0304H90.4146C90.7759 11.5701 91.1914 11.2272 91.6611 10.9926C92.1398 10.7579 92.6908 10.6406 93.332 10.6406C94.5605 10.6406 95.4818 11.0106 96.096 11.7506C96.7102 12.4816 97.0173 13.6458 97.0173 15.2431C97.0173 16.0102 96.9179 16.7051 96.7192 17.3188C96.5205 17.9415 96.2314 18.4739 95.8521 18.9161C95.4727 19.3673 95.003 19.7103 94.434 19.9449C93.874 20.1795 93.2327 20.2968 92.5011 20.2968C92.1036 20.2968 91.7604 20.2607 91.4714 20.1886C91.1823 20.1073 90.8933 20.0081 90.6043 19.8817V23.4825H88.1746V10.9023Z" fill="white"/>
<path d="M105.733 19.4666C105.345 19.7373 104.866 19.9359 104.315 20.0712C103.764 20.2156 103.195 20.2788 102.608 20.2788C101.813 20.2788 101.154 20.1705 100.612 19.9359C100.079 19.7012 99.6366 19.3763 99.2934 18.9432C98.9501 18.519 98.7063 18.0136 98.5527 17.427C98.4082 16.8405 98.3269 16.1907 98.3269 15.4687C98.3269 13.9526 98.7063 12.7704 99.4469 11.9221C100.197 11.0738 101.28 10.6406 102.708 10.6406C103.403 10.6406 103.972 10.6948 104.424 10.8121C104.866 10.9204 105.264 11.0648 105.616 11.2362L105.02 13.1765C104.722 13.0502 104.424 12.9599 104.126 12.8968C103.828 12.8336 103.484 12.7975 103.096 12.7975C102.364 12.7975 101.804 13.005 101.416 13.4292C101.028 13.8533 100.829 14.5302 100.829 15.4687C100.829 15.8387 100.883 16.1907 100.973 16.5066C101.064 16.8224 101.208 17.1022 101.407 17.3458C101.606 17.5895 101.85 17.779 102.157 17.9234C102.455 18.0588 102.807 18.131 103.213 18.131C103.701 18.131 104.09 18.0858 104.37 17.9956C104.659 17.9144 104.921 17.7971 105.182 17.6436L105.733 19.4666Z" fill="white"/>
<path d="M110.548 16.2358H109.69V20.0261H107.26V10.9023H109.69V14.8461L110.476 14.5212L112.806 10.9023H115.434C115.028 11.4619 114.63 12.0214 114.242 12.5809C113.854 13.1404 113.456 13.6999 113.068 14.2595L111.921 15.0175L113.14 15.7666C113.574 16.4885 114.025 17.1924 114.477 17.8963C114.929 18.5912 115.371 19.3042 115.814 20.0261H112.996L110.548 16.2358Z" fill="white"/>
<path d="M123.076 15.9019L123.175 14.3587L122.082 15.8929L118.478 20.0261H117.024V10.9023H119.454V15.198L119.372 16.4434H119.58C119.716 16.2449 119.86 16.0373 120.005 15.8207C120.149 15.6041 120.294 15.3875 120.429 15.198L124.042 10.9023H125.505V20.0261H123.076V15.9019Z" fill="white"/>
<path d="M130.888 7.65234C130.979 8.13967 131.141 8.47357 131.367 8.64504C131.602 8.8165 131.9 8.90675 132.27 8.90675C132.659 8.90675 132.957 8.8165 133.183 8.63601C133.417 8.45552 133.571 8.13967 133.661 7.67039L135.477 8.13967C135.323 8.90675 134.944 9.47529 134.339 9.86335C133.743 10.2424 133.02 10.4319 132.189 10.4319C131.783 10.4319 131.394 10.3958 131.033 10.3146C130.663 10.2334 130.337 10.098 130.03 9.91749C129.732 9.72798 129.47 9.49334 129.254 9.20456C129.046 8.91577 128.892 8.55479 128.811 8.13967L130.888 7.65234ZM133.806 15.9007L133.905 14.3576L132.812 15.8917L129.217 20.0249H127.754V10.9012H130.184V15.1968L130.103 16.4422H130.31C130.446 16.2437 130.59 16.0361 130.735 15.8195C130.879 15.6029 131.024 15.3863 131.159 15.1968L134.781 10.9012H136.236V20.0249H133.806V15.9007Z" fill="white"/>
<path d="M59.5959 33.8959H55.8023V40.8628H53.228V31.748H59.5959V33.8959Z" fill="white"/>
<path d="M62.8745 36.3144C62.8745 36.6935 62.9107 37.0544 62.9919 37.3884C63.0732 37.7223 63.1997 38.0201 63.3713 38.2637C63.5339 38.5164 63.7507 38.715 64.0216 38.8684C64.2926 39.0128 64.6087 39.094 64.9971 39.094C66.4062 39.094 67.1197 38.1645 67.1197 36.3144C67.1197 35.9083 67.0746 35.5293 67.0023 35.1954C66.9301 34.8525 66.8036 34.5547 66.641 34.302C66.4694 34.0583 66.2526 33.8598 65.9817 33.7244C65.7017 33.589 65.3765 33.5168 64.9971 33.5168C64.3378 33.5168 63.8139 33.7334 63.4436 34.1756C63.0642 34.6178 62.8745 35.3308 62.8745 36.3144ZM60.3726 36.3144C60.3726 34.8073 60.77 33.6251 61.5739 32.7678C62.3687 31.9105 63.5158 31.4863 64.9971 31.4863C65.7739 31.4863 66.4513 31.6036 67.0294 31.8473C67.6075 32.091 68.0862 32.4339 68.4746 32.8671C68.854 33.3003 69.143 33.8056 69.3327 34.3922C69.5224 34.9788 69.6217 35.6196 69.6217 36.3144C69.6217 37.0544 69.5133 37.7223 69.3056 38.3179C69.0978 38.9135 68.7907 39.4189 68.4023 39.834C68.0049 40.2491 67.5262 40.574 66.9481 40.7906C66.3791 41.0072 65.7288 41.1245 64.9971 41.1245C64.2113 41.1245 63.5249 40.9982 62.9468 40.7545C62.3687 40.5108 61.881 40.1769 61.5016 39.7438C61.1222 39.3106 60.8332 38.7962 60.6526 38.2096C60.4629 37.632 60.3726 36.9913 60.3726 36.3144Z" fill="white"/>
<path d="M78.3379 40.3033C77.9405 40.574 77.4708 40.7725 76.9199 40.9169C76.3689 41.0523 75.7998 41.1245 75.2037 41.1245C74.4179 41.1245 73.7585 41.0072 73.2166 40.7725C72.6746 40.5469 72.2411 40.213 71.8979 39.7889C71.5546 39.3557 71.3108 38.8503 71.1572 38.2637C71.0037 37.6771 70.9314 37.0274 70.9314 36.3144C70.9314 34.7983 71.3017 33.6071 72.0514 32.7588C72.8011 31.9105 73.885 31.4863 75.3121 31.4863C76.0076 31.4863 76.5766 31.5405 77.0192 31.6488C77.4708 31.7571 77.8683 31.9015 78.2115 32.0729L77.6244 34.0222C77.3173 33.8959 77.0192 33.7966 76.7302 33.7334C76.4321 33.6703 76.0889 33.6342 75.6915 33.6342C74.9598 33.6342 74.3998 33.8507 74.0205 34.2659C73.6321 34.69 73.4334 35.3759 73.4334 36.3144C73.4334 36.6844 73.4785 37.0274 73.5779 37.3432C73.6682 37.6591 73.8127 37.9479 74.0114 38.1825C74.2011 38.4262 74.454 38.6247 74.7521 38.7601C75.0592 38.8954 75.4115 38.9676 75.8179 38.9676C76.3057 38.9676 76.685 38.9225 76.9741 38.8413C77.2541 38.7511 77.525 38.6337 77.7779 38.4803L78.3379 40.3033Z" fill="white"/>
<path d="M83.8296 36.8018L84.218 38.2547H84.3896L84.7238 36.8018L86.2684 31.748H88.7523L85.7264 39.9964C85.4735 40.6733 85.2297 41.2869 85.0038 41.8374C84.778 42.3789 84.5342 42.8392 84.2722 43.2272C84.0013 43.6062 83.7032 43.895 83.369 44.1026C83.0438 44.3011 82.6554 44.4004 82.2038 44.4004C81.8967 44.4004 81.6077 44.3824 81.3367 44.3282C81.0657 44.2741 80.8309 44.1928 80.6322 44.0936L81.138 42.2165C81.3096 42.2706 81.4903 42.3067 81.6799 42.3067C81.8425 42.3067 81.9961 42.2887 82.1496 42.2526C82.2941 42.2165 82.4387 42.1533 82.5651 42.054C82.6916 41.9548 82.809 41.8104 82.9174 41.6299C83.0348 41.4584 83.1251 41.2148 83.2064 40.9169L79.0334 31.748H81.978L83.8296 36.8018Z" fill="white"/>
<path d="M95.1656 38.8323V33.7786H92.8895C92.8624 34.2298 92.8172 34.6991 92.754 35.1864C92.6817 35.6647 92.5914 36.134 92.492 36.5942C92.3836 37.0364 92.2662 37.4606 92.1217 37.8576C91.9862 38.2547 91.8327 38.5706 91.6701 38.8323H95.1656ZM99.0586 42.9294H97.3605L97.0443 40.8628H90.1255L89.7913 42.9294H88.0933V38.7059H89.2404C89.3397 38.5706 89.4842 38.3359 89.6649 38.0111C89.8455 37.6862 90.0172 37.253 90.1888 36.6935C90.3514 36.134 90.4959 35.4481 90.6223 34.6359C90.7397 33.8147 90.812 32.8581 90.821 31.748H97.6044V38.7059H99.0586V42.9294Z" fill="white"/>
<path d="M103.918 39.0577C104.46 39.0577 104.893 38.9314 105.218 38.6697C105.543 38.417 105.787 38.1553 105.932 37.8755V36.8287C105.878 36.8106 105.787 36.7835 105.661 36.7655C105.543 36.7384 105.408 36.7204 105.263 36.6933C105.119 36.6662 104.974 36.6572 104.83 36.6392C104.685 36.6301 104.55 36.6211 104.441 36.6211C103.818 36.6211 103.349 36.7384 103.051 36.964C102.743 37.1896 102.599 37.4694 102.599 37.8033C102.599 38.2184 102.716 38.5343 102.951 38.7419C103.186 38.9494 103.511 39.0577 103.918 39.0577ZM100.738 32.3706C101.262 32.1359 101.894 31.9464 102.662 31.793C103.421 31.6486 104.198 31.5674 105.011 31.5674C105.652 31.5674 106.185 31.6486 106.618 31.793C107.052 31.9464 107.404 32.163 107.657 32.4428C107.91 32.7315 108.091 33.0745 108.199 33.4716C108.307 33.8686 108.371 34.3108 108.371 34.7982C108.371 35.3938 108.343 35.9713 108.298 36.5579C108.253 37.1355 108.226 37.7492 108.226 38.3989C108.226 38.8321 108.253 39.2653 108.316 39.6804C108.371 40.0955 108.47 40.4926 108.596 40.8807H106.609L106.212 39.527H106.004C105.706 39.9331 105.318 40.276 104.857 40.5648C104.396 40.8536 103.8 40.998 103.069 40.998C102.626 40.998 102.22 40.9348 101.858 40.8085C101.497 40.6821 101.181 40.5016 100.919 40.267C100.657 40.0233 100.458 39.7436 100.314 39.4187C100.169 39.0938 100.097 38.7419 100.097 38.3628C100.097 37.334 100.44 36.5489 101.127 36.0255C101.813 35.5021 102.861 35.2313 104.27 35.2313C104.586 35.2313 104.911 35.2584 105.236 35.3126C105.562 35.3667 105.787 35.4028 105.914 35.4299C105.95 35.1862 105.968 34.9786 105.968 34.7982C105.968 34.356 105.86 34.0311 105.643 33.8235C105.417 33.6159 105.011 33.5167 104.405 33.5167C103.845 33.5167 103.303 33.5798 102.78 33.7152C102.256 33.8506 101.786 34.013 101.38 34.2116L100.738 32.3706Z" fill="white"/>
<path d="M114.992 33.5168C114.432 33.5168 114.007 33.6432 113.7 33.8868C113.402 34.1395 113.167 34.5186 113.004 35.042V38.5886C113.203 38.7511 113.429 38.8774 113.673 38.9676C113.917 39.0579 114.215 39.103 114.594 39.103C115.38 39.103 115.967 38.8593 116.346 38.372C116.726 37.8757 116.915 37.0905 116.915 36.0166C116.915 35.2405 116.771 34.6269 116.473 34.1847C116.184 33.7425 115.687 33.5168 114.992 33.5168ZM110.575 31.748H112.309L112.607 32.8761H112.815C113.176 32.4068 113.592 32.0639 114.07 31.8293C114.54 31.5946 115.1 31.4863 115.741 31.4863C116.97 31.4863 117.891 31.8473 118.505 32.5873C119.119 33.3183 119.426 34.4915 119.426 36.0888C119.426 36.8469 119.327 37.5418 119.128 38.1645C118.93 38.7781 118.641 39.3106 118.261 39.7618C117.873 40.204 117.403 40.5469 116.843 40.7816C116.283 41.0162 115.633 41.1425 114.901 41.1425C114.513 41.1425 114.17 41.0974 113.881 41.0252C113.592 40.953 113.293 40.8447 113.004 40.7184V44.3192H110.575V31.748Z" fill="white"/>
<path d="M128.143 40.3033C127.745 40.574 127.276 40.7725 126.725 40.9169C126.174 41.0523 125.605 41.1245 125.009 41.1245C124.223 41.1245 123.563 41.0072 123.022 40.7725C122.48 40.5469 122.037 40.213 121.703 39.7889C121.36 39.3557 121.107 38.8503 120.962 38.2637C120.809 37.6771 120.736 37.0274 120.736 36.3144C120.736 34.7983 121.107 33.6071 121.856 32.7588C122.606 31.9105 123.69 31.4863 125.117 31.4863C125.813 31.4863 126.382 31.5405 126.824 31.6488C127.276 31.7571 127.673 31.9015 128.016 32.0729L127.429 34.0222C127.122 33.8959 126.824 33.7966 126.535 33.7334C126.237 33.6703 125.894 33.6342 125.496 33.6342C124.765 33.6342 124.205 33.8507 123.816 34.2659C123.428 34.69 123.238 35.3759 123.238 36.3144C123.238 36.6844 123.283 37.0274 123.374 37.3432C123.473 37.6591 123.618 37.9479 123.807 38.1825C124.006 38.4262 124.259 38.6247 124.557 38.7601C124.855 38.8954 125.216 38.9676 125.623 38.9676C126.102 38.9676 126.49 38.9225 126.77 38.8413C127.059 38.7511 127.33 38.6337 127.583 38.4803L128.143 40.3033Z" fill="white"/>
<path d="M137.229 33.8959H134.393V40.8628H131.855V33.8959H129.028V31.748H137.229V33.8959Z" fill="white"/>
<path d="M140.897 39.0031C141.131 39.0482 141.33 39.0753 141.493 39.0934C141.664 39.1024 141.863 39.1024 142.098 39.1024C142.884 39.1024 143.435 39.0121 143.742 38.8226C144.049 38.6331 144.202 38.3533 144.202 37.9924C144.202 37.6675 144.067 37.4058 143.796 37.2072C143.534 36.9997 143.046 36.9004 142.342 36.9004H140.897V39.0031ZM142.378 35.4565C142.838 35.4565 143.218 35.3662 143.507 35.1948C143.796 35.0143 143.94 34.7796 143.94 34.4909C143.94 34.175 143.814 33.9313 143.561 33.7599C143.317 33.5884 142.866 33.4982 142.215 33.4982C141.989 33.4982 141.791 33.5072 141.646 33.5162C141.493 33.5252 141.357 33.5343 141.231 33.5523C141.177 33.5523 141.122 33.5523 141.05 33.5613C140.987 33.5613 140.933 33.5704 140.897 33.5704V35.4565H142.378ZM138.512 31.7474C138.991 31.7113 139.551 31.6752 140.183 31.6391C140.824 31.603 141.52 31.585 142.287 31.585C143.724 31.585 144.744 31.7745 145.349 32.1625C145.946 32.5416 146.253 33.1101 146.253 33.8591C146.253 34.2923 146.117 34.6984 145.846 35.0955C145.584 35.4926 145.169 35.7814 144.6 35.9799V36.1153C145.322 36.2687 145.846 36.5304 146.171 36.8914C146.506 37.2614 146.668 37.7307 146.668 38.3082C146.668 39.2107 146.289 39.8875 145.521 40.3387C144.753 40.79 143.543 41.0156 141.872 41.0156C141.321 41.0156 140.752 41.0065 140.138 40.9705C139.533 40.9434 138.991 40.9073 138.512 40.8622V31.7474Z" fill="white"/>
<path d="M152.548 33.3905C151.834 33.3905 151.301 33.589 150.949 33.9771C150.606 34.3651 150.398 34.8615 150.344 35.4571H154.273C154.318 34.8254 154.201 34.32 153.921 33.95C153.65 33.58 153.189 33.3905 152.548 33.3905ZM156.197 40.0235C155.809 40.3303 155.276 40.583 154.598 40.7996C153.912 41.0162 153.189 41.1245 152.412 41.1245C150.85 41.1245 149.703 40.6913 148.971 39.834C148.239 38.9767 147.878 37.8035 147.878 36.3144C147.878 34.7261 148.285 33.5259 149.107 32.7046C149.929 31.8924 151.094 31.4863 152.584 31.4863C153.072 31.4863 153.551 31.5405 154.029 31.6668C154.508 31.7841 154.923 31.9917 155.294 32.2715C155.664 32.5602 155.971 32.9393 156.197 33.4176C156.423 33.9049 156.531 34.4915 156.531 35.1954C156.531 35.4391 156.513 35.7098 156.486 35.9986C156.459 36.2874 156.414 36.5852 156.342 36.901H150.254C150.317 37.6862 150.543 38.2728 150.94 38.6428C151.347 39.0218 151.997 39.2113 152.9 39.2113C153.442 39.2113 153.93 39.1301 154.363 38.9767C154.806 38.8233 155.131 38.6608 155.366 38.4984L156.197 40.0235Z" fill="white"/>
<path d="M164.344 37.3342H160.885V40.8628H158.455V31.748H160.885V35.1322H164.344V31.748H166.783V40.8628H164.344V37.3342Z" fill="white"/>
<path d="M174.921 37.3342H171.462V40.8628H169.032V31.748H171.462V35.1322H174.921V31.748H177.36V40.8628H174.921V37.3342Z" fill="white"/>
<path d="M188.84 31.748H191.27V40.8628H188.84V31.748ZM182.039 38.8323C182.265 38.8774 182.481 38.9045 182.689 38.9225C182.906 38.9406 183.105 38.9496 183.294 38.9496C183.918 38.9496 184.36 38.8503 184.631 38.6518C184.893 38.4623 185.029 38.1374 185.029 37.7042C185.029 37.3342 184.893 37.0454 184.631 36.8379C184.36 36.6393 183.945 36.5401 183.358 36.5401C182.879 36.5401 182.436 36.5852 182.039 36.6935V38.8323ZM182.039 35.0059C182.4 34.9517 182.752 34.9066 183.114 34.8886C183.466 34.8615 183.764 34.8525 184.008 34.8525C184.667 34.8525 185.218 34.9247 185.661 35.0691C186.112 35.2135 186.474 35.412 186.754 35.6647C187.025 35.9264 187.232 36.2242 187.35 36.5762C187.476 36.9191 187.531 37.2891 187.531 37.6862C187.531 38.2276 187.458 38.7059 187.296 39.112C187.142 39.5272 186.889 39.8701 186.537 40.1499C186.176 40.4296 185.724 40.6372 185.164 40.7725C184.595 40.9169 183.909 40.9801 183.105 40.9801C182.337 40.9801 181.678 40.9711 181.127 40.953C180.576 40.944 180.07 40.9169 179.609 40.8808V31.748H182.039V35.0059Z" fill="white"/>
<path d="M196.653 28.499C196.743 28.9863 196.906 29.3112 197.141 29.4827C197.367 29.6632 197.665 29.7444 198.044 29.7444C198.423 29.7444 198.73 29.6542 198.956 29.4737C199.182 29.2932 199.336 28.9773 199.435 28.5171L201.241 28.9863C201.088 29.7444 200.709 30.322 200.112 30.701C199.507 31.08 198.785 31.2786 197.954 31.2786C197.547 31.2786 197.159 31.2334 196.798 31.1522C196.436 31.071 196.102 30.9356 195.795 30.7551C195.497 30.5656 195.235 30.331 195.027 30.0422C194.81 29.7534 194.666 29.4015 194.585 28.9863L196.653 28.499ZM199.57 36.7474L199.679 35.1952L198.577 36.7294L194.982 40.8626H193.519V31.7478H195.958V36.0345L195.867 37.2799H196.075C196.219 37.0904 196.355 36.8828 196.499 36.6572C196.644 36.4406 196.789 36.233 196.924 36.0345L200.546 31.7478H202V40.8626H199.57V36.7474Z" fill="white"/>
<path d="M56.5701 57.6397L56.9495 59.0926H57.1211L57.4553 57.6397L58.9998 52.5859H61.4837L58.4669 60.8343C58.205 61.5202 57.9701 62.1339 57.7443 62.6753C57.5185 63.2168 57.2656 63.6771 57.0037 64.0651C56.7327 64.4441 56.4346 64.7419 56.1095 64.9405C55.7753 65.139 55.3869 65.2473 54.9353 65.2473C54.6372 65.2473 54.3482 65.2202 54.0772 65.1661C53.8062 65.1119 53.5714 65.0398 53.3727 64.9315L53.8785 63.0544C54.0501 63.1175 54.2307 63.1446 54.4114 63.1446C54.574 63.1446 54.7365 63.1266 54.8811 63.0905C55.0346 63.0544 55.1701 62.9912 55.2966 62.8919C55.423 62.7927 55.5495 62.6573 55.6578 62.4768C55.7662 62.2963 55.8656 62.0526 55.9469 61.7548L51.7739 52.5859H54.7094L56.5701 57.6397Z" fill="white"/>
<path d="M68.5473 58.1721H65.0879V61.7007H62.6582V52.5859H65.0879V55.9701H68.5473V52.5859H70.9861V61.7007H68.5473V58.1721Z" fill="white"/>
<path d="M79.2866 57.5855L79.3859 56.0423L78.293 57.5675L74.6981 61.7007H73.2349V52.5859H75.6646V56.8726L75.5833 58.127H75.791C75.9265 57.9284 76.071 57.7209 76.2155 57.4953C76.3601 57.2787 76.5046 57.0711 76.6401 56.8726L80.253 52.5859H81.7163V61.7007H79.2866V57.5855Z" fill="white"/>
<path d="M86.3499 59.842C86.5757 59.8871 86.7834 59.9142 86.946 59.9322C87.1176 59.9412 87.3163 59.9503 87.5512 59.9503C88.337 59.9503 88.8789 59.851 89.186 59.6615C89.4931 59.472 89.6467 59.1922 89.6467 58.8403C89.6467 58.5154 89.5202 58.2446 89.2493 58.0461C88.9873 57.8476 88.4996 57.7393 87.7951 57.7393H86.3499V59.842ZM87.8222 56.3044C88.2918 56.3044 88.6622 56.2141 88.9512 56.0336C89.2493 55.8531 89.3938 55.6185 89.3938 55.3297C89.3938 55.0139 89.2673 54.7702 89.0144 54.5987C88.7706 54.4273 88.3189 54.337 87.6686 54.337C87.4338 54.337 87.2441 54.346 87.0996 54.3551C86.946 54.3641 86.8015 54.3821 86.675 54.3912C86.6299 54.3912 86.5757 54.3912 86.5034 54.4002C86.4312 54.4002 86.386 54.4092 86.3499 54.4092V56.3044H87.8222ZM83.9653 52.5863C84.444 52.5502 84.995 52.5141 85.6363 52.478C86.2686 52.4419 86.9731 52.4238 87.7409 52.4238C89.177 52.4238 90.1977 52.6224 90.7938 53.0014C91.399 53.3804 91.7061 53.949 91.7061 54.707C91.7061 55.1312 91.5706 55.5463 91.2996 55.9344C91.0377 56.3314 90.6222 56.6292 90.0531 56.8188V56.9632C90.7667 57.1075 91.2906 57.3693 91.6248 57.7302C91.9499 58.1002 92.1216 58.5695 92.1216 59.1471C92.1216 60.0495 91.7332 60.7264 90.9744 61.1776C90.2067 61.6288 88.9873 61.8544 87.3254 61.8544C86.7744 61.8544 86.1963 61.8454 85.5912 61.8183C84.986 61.7822 84.444 61.7461 83.9653 61.701V52.5863Z" fill="white"/>
<path d="M98.0015 54.2374C97.288 54.2374 96.7551 54.4269 96.4028 54.815C96.0596 55.203 95.8518 55.6994 95.7976 56.304H99.7267C99.7719 55.6633 99.6544 55.1579 99.3744 54.7879C99.0944 54.4179 98.6428 54.2374 98.0015 54.2374ZM101.651 60.8704C101.262 61.1682 100.72 61.4299 100.043 61.6375C99.3654 61.8541 98.6428 61.9624 97.866 61.9624C96.3034 61.9624 95.1563 61.5382 94.4247 60.6719C93.6931 59.8236 93.3228 58.6414 93.3228 57.1523C93.3228 55.564 93.7382 54.3638 94.5602 53.5516C95.3821 52.7303 96.5383 52.3242 98.0377 52.3242C98.5254 52.3242 99.0041 52.3874 99.4828 52.5047C99.9525 52.6311 100.377 52.8296 100.747 53.1184C101.118 53.3981 101.416 53.7772 101.642 54.2645C101.867 54.7428 101.985 55.3294 101.985 56.0423C101.985 56.286 101.967 56.5477 101.94 56.8365C101.913 57.1253 101.858 57.4321 101.795 57.7389H95.7073C95.7705 58.5331 95.9963 59.1106 96.3938 59.4897C96.7912 59.8687 97.4505 60.0492 98.3538 60.0492C98.8957 60.0492 99.3835 59.977 99.817 59.8146C100.251 59.6611 100.585 59.4987 100.82 59.3363L101.651 60.8704Z" fill="white"/>
<path d="M108.298 54.3547C107.738 54.3547 107.314 54.4811 107.007 54.7247C106.709 54.9774 106.474 55.3655 106.311 55.8799V59.4265C106.51 59.5889 106.727 59.7153 106.971 59.8055C107.215 59.9048 107.522 59.9499 107.892 59.9499C108.687 59.9499 109.265 59.7063 109.653 59.2099C110.033 58.7136 110.222 57.9375 110.222 56.8545C110.222 56.0784 110.078 55.4738 109.78 55.0225C109.491 54.5803 108.994 54.3547 108.298 54.3547ZM103.882 52.5859H105.616L105.914 53.714H106.122C106.483 53.2537 106.898 52.9018 107.377 52.6671C107.847 52.4415 108.407 52.3242 109.039 52.3242C110.267 52.3242 111.189 52.6942 111.803 53.4252C112.417 54.1652 112.724 55.3294 112.724 56.9267C112.724 57.6938 112.625 58.3797 112.435 59.0023C112.237 59.625 111.947 60.1575 111.559 60.5997C111.18 61.0419 110.71 61.3848 110.15 61.6195C109.581 61.8631 108.94 61.9804 108.208 61.9804C107.811 61.9804 107.476 61.9443 107.187 61.8631C106.889 61.7909 106.6 61.6917 106.311 61.5653V65.1571H103.882V52.5859Z" fill="white"/>
<path d="M121.441 61.1412C121.052 61.4119 120.583 61.6104 120.032 61.7548C119.481 61.8902 118.912 61.9624 118.316 61.9624C117.53 61.9624 116.861 61.8451 116.328 61.6104C115.786 61.3848 115.344 61.0509 115.01 60.6268C114.666 60.1936 114.414 59.6882 114.269 59.1016C114.115 58.5241 114.043 57.8743 114.043 57.1523C114.043 55.6362 114.414 54.454 115.163 53.5967C115.913 52.7484 116.997 52.3242 118.424 52.3242C119.119 52.3242 119.688 52.3784 120.131 52.4867C120.583 52.595 120.98 52.7393 121.323 52.9108L120.736 54.8601C120.429 54.7338 120.131 54.6345 119.842 54.5713C119.544 54.5081 119.201 54.4811 118.803 54.4811C118.072 54.4811 117.512 54.6886 117.123 55.1128C116.735 55.5369 116.545 56.2138 116.545 57.1523C116.545 57.5223 116.59 57.8653 116.681 58.1811C116.78 58.506 116.925 58.7858 117.114 59.0294C117.313 59.2731 117.566 59.4626 117.864 59.598C118.162 59.7424 118.523 59.8055 118.93 59.8055C119.408 59.8055 119.797 59.7604 120.077 59.6792C120.366 59.5889 120.637 59.4716 120.89 59.3182L121.441 61.1412Z" fill="white"/>
<path d="M129.019 57.5855L129.127 56.0423L128.034 57.5675L124.43 61.7007H122.967V52.5859H125.406V56.8726L125.315 58.127H125.523C125.668 57.9284 125.803 57.7209 125.957 57.4953C126.101 57.2787 126.237 57.0711 126.381 56.8726L129.994 52.5859H131.457V61.7007H129.019V57.5855Z" fill="white"/>
<path d="M140.932 54.7338H138.105V61.7007H135.567V54.7338H132.731V52.5859H140.932V54.7338Z" fill="white"/>
<path d="M146.47 54.2374C145.747 54.2374 145.214 54.4269 144.871 54.815C144.519 55.203 144.32 55.6994 144.257 56.304H148.186C148.231 55.6633 148.113 55.1579 147.842 54.7879C147.562 54.4179 147.102 54.2374 146.47 54.2374ZM150.119 60.8704C149.721 61.1682 149.188 61.4299 148.511 61.6375C147.833 61.8541 147.102 61.9624 146.325 61.9624C144.762 61.9624 143.615 61.5382 142.884 60.6719C142.152 59.8236 141.791 58.6414 141.791 57.1523C141.791 55.564 142.206 54.3638 143.028 53.5516C143.85 52.7303 145.006 52.3242 146.497 52.3242C146.984 52.3242 147.472 52.3874 147.942 52.5047C148.421 52.6311 148.845 52.8296 149.215 53.1184C149.586 53.3981 149.884 53.7772 150.11 54.2645C150.335 54.7428 150.444 55.3294 150.444 56.0423C150.444 56.286 150.435 56.5477 150.399 56.8365C150.372 57.1253 150.326 57.4321 150.254 57.7389H144.175C144.23 58.5331 144.455 59.1106 144.862 59.4897C145.259 59.8687 145.91 60.0492 146.813 60.0492C147.355 60.0492 147.851 59.977 148.285 59.8146C148.719 59.6611 149.053 59.4987 149.279 59.3363L150.119 60.8704Z" fill="white"/>
<path d="M159.72 54.7338H156.893V61.7007H154.354V54.7338H151.518V52.5859H159.72V54.7338Z" fill="white"/>
<path d="M38.2431 31.7852H28.7139L28.6688 47.6141C28.6688 52.8935 24.3874 57.1801 19.1035 57.1801C14.0273 57.1801 9.88142 53.2364 9.55625 48.2459H9.57432V31.7852H0.0451619L0.00903237 47.6141C0.00903237 47.6683 0 47.7134 0 47.7676C0 58.3082 8.55366 66.8544 19.1035 66.8544C29.3552 66.8544 37.7192 58.7775 38.1708 48.6429L38.2431 31.7852Z" fill="white"/>
<path d="M38.225 19.1137L31.8572 12.7424L19.1215 25.476L6.37685 12.7334L0 19.1047L14.3705 33.4717V50.9341H23.8997V33.4446L38.225 19.1137Z" fill="white"/>
<path d="M15.933 3.18565L19.1124 0L22.3008 3.18565L19.1124 6.36227L22.3008 9.54792L25.4893 6.36227L28.6687 9.54792L19.1124 19.1049L9.55615 9.54792L12.7446 6.36227L15.933 9.54792L19.1124 6.36227L15.933 3.18565Z" fill="white"/>
</svg>
